<svg xmlns="http://www.w3.org/2000/svg" xmlns:xlink="http://www.w3.org/1999/xlink" width="16" height="16" viewBox="0 0 16 16">
  <defs>
    <clipPath id="clip-catalog_icon_connected_black">
      <rect width="16" height="16"/>
    </clipPath>
  </defs>
  <g id="catalog_icon_connected_black" clip-path="url(#clip-catalog_icon_connected_black)">
    <g id="Group_3887" data-name="Group 3887" transform="translate(-210 -549)">
      <g id="Group_3873" data-name="Group 3873" transform="translate(209.846 549.359)">
        <circle id="Ellipse_60" data-name="Ellipse 60" cx="3.311" cy="3.311" r="3.311" transform="translate(8.997 0.641)" fill="#329626"/>
        <path id="Path_1990" data-name="Path 1990" d="M15.437,10.256h-3.02L14.946,8.89a.5.5,0,0,0,.173-.725l-.432-.623a4.351,4.351,0,0,1-.908.446l.2.288L4.864,13.2,7.325,9.41a.343.343,0,0,0,.045-.016L10.347,7.9a4.317,4.317,0,0,1-.882-.639l-1.128.46.717-.976a4.267,4.267,0,0,1-.6-.908l-4.99,7.685L1.339,12.073,7.631,2.384l.554.379a4.249,4.249,0,0,1,.4-.94l-.81-.554a.5.5,0,0,0-.381-.077.494.494,0,0,0-.321.218L.235,11.937a.5.5,0,0,0,.137.685l2.947,2.017a.5.5,0,0,0,.23.071l.017.011a.43.43,0,0,0,.052.035.5.5,0,0,0,.228.062h.005l11.579-.125a.5.5,0,0,0,.495-.5l.012-3.437a.5.5,0,0,0-.5-.5ZM14.926,13.7l-9.062.1,4.7-2.54h4.37Z" fill="#c1c1c1"/>
        <path id="Path_1991" data-name="Path 1991" d="M3.431,11.362a.161.161,0,0,0-.036-.024.489.489,0,0,0-.566.018.563.563,0,0,0-.083.079.49.49,0,0,0,.074.684.452.452,0,0,0,.058.039.485.485,0,0,0,.271.066A.528.528,0,0,0,3.28,12.2a.485.485,0,0,0,.19-.122c.009-.012.021-.02.03-.031A.486.486,0,0,0,3.431,11.362Z" fill="#c1c1c1"/>
      </g>
      <rect id="Rectangle_530" data-name="Rectangle 530" width="16" height="16" transform="translate(210 549)" fill="none"/>
    </g>
  </g>
</svg>
