<svg width="16" height="22" viewBox="0 0 16 22" fill="none" xmlns="http://www.w3.org/2000/svg">
<path d="M13.6055 5.51562C13.7513 5.55208 13.8698 5.63411 13.9609 5.76172C14.0703 5.87109 14.125 6.00781 14.125 6.17188V15.5781C14.125 15.651 14.1159 15.724 14.0977 15.7969C14.0794 15.8516 14.0612 15.9062 14.043 15.9609C14.0247 16.0156 13.9883 16.0612 13.9336 16.0977C13.9154 16.1159 13.8698 16.125 13.7969 16.125C13.7057 16.125 13.5872 16.1068 13.4414 16.0703C13.3685 16.0521 13.3047 16.0247 13.25 15.9883V7.01953C13.25 6.8737 13.2044 6.74609 13.1133 6.63672C13.0221 6.50911 12.9036 6.42708 12.7578 6.39062L6.25 4.80469C6.21354 4.80469 6.1862 4.80469 6.16797 4.80469C6.16797 4.78646 6.14974 4.77734 6.11328 4.77734C6.05859 4.77734 5.97656 4.79557 5.86719 4.83203L3.46094 5.76172L10.9805 7.42969C11.3268 7.52083 11.5 7.73958 11.5 8.08594V17.2188C11.5 17.4193 11.4362 17.5742 11.3086 17.6836C11.181 17.8112 11.026 17.875 10.8438 17.875H10.7344L2.42188 15.7695C2.27604 15.7331 2.14844 15.6602 2.03906 15.5508C1.92969 15.4232 1.875 15.2773 1.875 15.1133V5.87109C1.875 5.5612 2.01172 5.36068 2.28516 5.26953L5.83984 3.92969C5.94922 3.89323 6.03125 3.875 6.08594 3.875C6.14062 3.875 6.1862 3.88411 6.22266 3.90234L13.6055 5.51562ZM2.75 6.5V14.9492L10.625 16.9453V8.25L2.75 6.5Z" fill="#CCCCCC"/>
</svg>
