<svg width="16" height="16" viewBox="0 0 16 16" fill="none" xmlns="http://www.w3.org/2000/svg">
<path fill-rule="evenodd" clip-rule="evenodd" d="M7.88201 2.8125H2.625V3.625H7.73645C7.75921 3.34579 7.80858 3.07411 7.88201 2.8125ZM11.5704 7.25894L11.5625 6.0625C11.5625 5.38542 11.3255 4.8099 10.8516 4.33594C10.3776 3.86198 9.80208 3.625 9.125 3.625H8.74085C8.77102 3.34198 8.83685 3.06962 8.93376 2.8125H9.125C9.5651 2.8125 9.97982 2.89714 10.3691 3.06641C10.7754 3.23568 11.1224 3.47266 11.4102 3.77734C11.7148 4.0651 11.9518 4.41211 12.1211 4.81836C12.2904 5.20768 12.375 5.6224 12.375 6.0625L12.383 7.27273C12.268 7.28481 12.1512 7.29101 12.033 7.29101C11.876 7.29101 11.7216 7.28008 11.5704 7.25894ZM11.5771 8.26718L11.5879 9.90625L10.6484 8.78906C10.5469 8.6875 10.4453 8.63672 10.3438 8.63672C10.2591 8.63672 10.166 8.6875 10.0645 8.78906C9.97982 8.8737 9.9375 8.9668 9.9375 9.06836C9.9375 9.16992 9.97982 9.26302 10.0645 9.34766L11.3848 10.8965C11.554 11.0488 11.7487 11.125 11.9688 11.125C12.1888 11.125 12.3835 11.0488 12.5527 10.8965L13.8984 9.34766C14 9.24609 14.0508 9.15299 14.0508 9.06836C14.0508 8.9668 14 8.8737 13.8984 8.78906C13.7969 8.6875 13.6953 8.63672 13.5938 8.63672C13.5091 8.63672 13.416 8.6875 13.3145 8.78906L12.4004 9.90625L12.3896 8.27647C12.272 8.2861 12.1531 8.29101 12.033 8.29101C11.879 8.29101 11.7269 8.28293 11.5771 8.26718ZM4.14844 14.2891C3.67448 13.8151 3.4375 13.2396 3.4375 12.5625L3.46289 9.71875L4.37695 10.8105C4.47852 10.8952 4.57161 10.9375 4.65625 10.9375C4.75781 10.9375 4.85938 10.8952 4.96094 10.8105C5.0625 10.709 5.11328 10.6159 5.11328 10.5312C5.11328 10.4297 5.0625 10.3366 4.96094 10.252L3.61523 8.72852C3.44596 8.57617 3.2513 8.5 3.03125 8.5C2.8112 8.5 2.61654 8.57617 2.44727 8.72852L1.12695 10.252C1.04232 10.3366 1 10.4297 1 10.5312C1 10.6328 1.04232 10.7259 1.12695 10.8105C1.21159 10.8952 1.30469 10.9375 1.40625 10.9375C1.52474 10.9375 1.6263 10.8952 1.71094 10.8105L2.65039 9.71875L2.625 12.5625C2.625 13.0026 2.70964 13.4258 2.87891 13.832C3.04818 14.2214 3.27669 14.5684 3.56445 14.873C3.86914 15.1608 4.21615 15.3893 4.60547 15.5586C4.99479 15.7279 5.41797 15.8125 5.875 15.8125H12.375V15H5.875C5.19792 15 4.6224 14.763 4.14844 14.2891Z" fill="#CCCCCC"/>
<path d="M12.033 7.29101C13.8617 7.29101 15.344 5.80862 15.344 3.98001C15.344 2.15139 13.8617 0.669006 12.033 0.669006C10.2044 0.669006 8.72205 2.15139 8.72205 3.98001C8.72205 5.80862 10.2044 7.29101 12.033 7.29101Z" fill="#329626"/>
</svg>
