<svg width="16" height="22" viewBox="0 0 16 22" fill="none" xmlns="http://www.w3.org/2000/svg">
<path d="M14.3984 9.78906C14.5 9.8737 14.5508 9.9668 14.5508 10.0684C14.5508 10.153 14.5 10.2461 14.3984 10.3477L13.0527 11.8965C12.8835 12.0488 12.6888 12.125 12.4688 12.125C12.2487 12.125 12.054 12.0488 11.8848 11.8965L10.5645 10.3477C10.4798 10.263 10.4375 10.1699 10.4375 10.0684C10.4375 9.9668 10.4798 9.8737 10.5645 9.78906C10.666 9.6875 10.7591 9.63672 10.8438 9.63672C10.9453 9.63672 11.0469 9.6875 11.1484 9.78906L12.0879 10.9062L12.0625 8.0625C12.0625 7.38542 11.8255 6.8099 11.3516 6.33594C10.8776 5.86198 10.3021 5.625 9.625 5.625H3.125V4.8125H9.625C10.0651 4.8125 10.4798 4.89714 10.8691 5.06641C11.2754 5.23568 11.6224 5.47266 11.9102 5.77734C12.2148 6.0651 12.4518 6.41211 12.6211 6.81836C12.7904 7.20768 12.875 7.6224 12.875 8.0625L12.9004 10.9062L13.8145 9.78906C13.916 9.6875 14.0091 9.63672 14.0938 9.63672C14.1953 9.63672 14.2969 9.6875 14.3984 9.78906ZM3.9375 14.5625C3.9375 15.2396 4.17448 15.8151 4.64844 16.2891C5.1224 16.763 5.69792 17 6.375 17H12.875V17.8125H6.375C5.91797 17.8125 5.49479 17.7279 5.10547 17.5586C4.71615 17.3893 4.36914 17.1608 4.06445 16.873C3.77669 16.5684 3.54818 16.2214 3.37891 15.832C3.20964 15.4258 3.125 15.0026 3.125 14.5625L3.15039 11.7188L2.21094 12.8105C2.1263 12.8952 2.02474 12.9375 1.90625 12.9375C1.80469 12.9375 1.71159 12.8952 1.62695 12.8105C1.54232 12.7259 1.5 12.6328 1.5 12.5312C1.5 12.4297 1.54232 12.3366 1.62695 12.252L2.94727 10.7285C3.11654 10.5762 3.3112 10.5 3.53125 10.5C3.7513 10.5 3.94596 10.5762 4.11523 10.7285L5.46094 12.252C5.5625 12.3366 5.61328 12.4297 5.61328 12.5312C5.61328 12.6159 5.5625 12.709 5.46094 12.8105C5.35938 12.8952 5.25781 12.9375 5.15625 12.9375C5.07161 12.9375 4.97852 12.8952 4.87695 12.8105L3.96289 11.7188L3.9375 14.5625Z" fill="#CCCCCC"/>
</svg>
