<svg width="14" height="14" viewBox="0 0 14 14" fill="none" xmlns="http://www.w3.org/2000/svg">
<path fill-rule="evenodd" clip-rule="evenodd" d="M6.96289 12.3926C3.92989 12.3926 1.46289 9.92458 1.46289 6.89258C1.46289 3.86058 3.92989 1.39258 6.96289 1.39258C9.99589 1.39258 12.4629 3.86058 12.4629 6.89258C12.4629 9.92458 9.99589 12.3926 6.96289 12.3926ZM6.96289 0.392578C3.37889 0.392578 0.462891 3.30858 0.462891 6.89258C0.462891 10.4766 3.37889 13.3926 6.96289 13.3926C10.5469 13.3926 13.4629 10.4766 13.4629 6.89258C13.4629 3.30858 10.5469 0.392578 6.96289 0.392578ZM7.46289 10.397V9.39698H6.46289V10.397H7.46289ZM6.32199 3.60548C7.10699 3.25148 7.87199 3.35648 8.49999 3.94048C8.75399 4.17648 8.91699 4.44948 8.98599 4.74248C9.09399 5.19748 8.94999 5.57748 8.86399 5.79648C8.71499 6.17448 8.49399 6.43348 8.10099 6.89348C8.0224 6.98543 7.95567 7.05955 7.89806 7.12354C7.73575 7.30383 7.6457 7.40386 7.56599 7.59648C7.44099 7.90048 7.44199 8.19248 7.46299 8.39448C7.13199 8.39448 6.80099 8.39348 6.46999 8.39248C6.45999 8.25448 6.45699 8.04148 6.50699 7.78948C6.54899 7.58048 6.64299 7.27848 7.16499 6.50348C7.29436 6.3121 7.39617 6.17152 7.47646 6.06065C7.66676 5.79788 7.73616 5.70206 7.76499 5.49248C7.76899 5.46248 7.84799 4.83748 7.49699 4.62348C7.32499 4.51848 7.11199 4.55048 7.01299 4.56648C6.94399 4.57748 6.73699 4.61148 6.55199 4.77748C6.28199 5.01848 6.26399 5.35148 6.26099 5.41948C6.08432 5.41898 5.90741 5.41873 5.73036 5.41848C5.55366 5.41823 5.37682 5.41798 5.19999 5.41748C5.19299 5.24448 5.19799 4.78848 5.48899 4.32648C5.77399 3.87248 6.16599 3.67648 6.32199 3.60548Z" fill="#C5C5C5"/>
</svg>
