<svg xmlns="http://www.w3.org/2000/svg" xmlns:xlink="http://www.w3.org/1999/xlink" width="16" height="16" viewBox="0 0 16 16">
  <defs>
    <clipPath id="clip-service_icon_connected_black">
      <rect width="16" height="16"/>
    </clipPath>
  </defs>
  <g id="service_icon_connected_black" clip-path="url(#clip-service_icon_connected_black)">
    <g id="Group_3882" data-name="Group 3882" transform="translate(-197 -497)">
      <g id="Group_3871" data-name="Group 3871" transform="translate(196.732 497.028)">
        <circle id="Ellipse_60" data-name="Ellipse 60" cx="3.311" cy="3.311" r="3.311" transform="translate(8.99 0.641)" fill="#329626"/>
        <path id="Path_1986" data-name="Path 1986" d="M12.994,8.2l-.012,4.716L7.849,14.449V6.866l1.03-.32a4.275,4.275,0,0,1-.531-.884l-1,.31L2.691,4.509,7.214,3.058l.842.275a4.257,4.257,0,0,1,.25-.972l-.935-.305a.505.505,0,0,0-.308,0L.884,4.038a.5.5,0,0,0-.347.478c0,.041.027.072.036.111H.537V13a.627.627,0,0,0,.427.594l6.1,2.046a.565.565,0,0,0,.186.03.6.6,0,0,0,.273-.073l6.069-1.815.392-.15.014-5.708A4.284,4.284,0,0,1,12.994,8.2ZM6.85,14.51,1.536,12.728V5.2L6.85,6.864Z" fill="#c1c1c1"/>
      </g>
      <rect id="Rectangle_526" data-name="Rectangle 526" width="16" height="16" transform="translate(197 497)" fill="none"/>
    </g>
  </g>
</svg>
