<svg xmlns="http://www.w3.org/2000/svg" xmlns:xlink="http://www.w3.org/1999/xlink" width="16" height="16" viewBox="0 0 16 16">
  <defs>
    <clipPath id="clip-catalog_icon_white_">
      <rect width="16" height="16"/>
    </clipPath>
  </defs>
  <g id="catalog_icon_white_" data-name="catalog_icon_white " clip-path="url(#clip-catalog_icon_white_)">
    <g id="Group_3886" data-name="Group 3886" transform="translate(-167 -550)">
      <g id="Group_3877" data-name="Group 3877" transform="translate(207.605 530.501)">
        <path id="Path_1987" data-name="Path 1987" d="M-37.319,30.6a.141.141,0,0,0-.036-.024.487.487,0,0,0-.565.018.479.479,0,0,0-.083.079.491.491,0,0,0,.073.685.58.58,0,0,0,.058.038.485.485,0,0,0,.271.066.528.528,0,0,0,.131-.028.485.485,0,0,0,.19-.122c.009-.012.022-.02.03-.031A.486.486,0,0,0-37.319,30.6Z" fill="#616161"/>
        <path id="Path_1988" data-name="Path 1988" d="M-24.871,29.781a.5.5,0,0,0-.354-.147h-3.054l2.558-1.382a.5.5,0,0,0,.249-.323.5.5,0,0,0-.076-.4l-1.98-2.855a.5.5,0,0,0-.666-.145L-32.171,26.9l2.334-3.594a.5.5,0,0,0-.137-.686l-2.967-2.029a.494.494,0,0,0-.381-.077.494.494,0,0,0-.321.218l-6.881,10.6a.5.5,0,0,0,.137.686l2.967,2.029a.5.5,0,0,0,.231.071l.018.012a.431.431,0,0,0,.052.035.488.488,0,0,0,.228.062h0l11.655-.126a.5.5,0,0,0,.494-.5l.012-3.459A.5.5,0,0,0-24.871,29.781Zm-8.475-1.021,5.263-3.135,1.4,2.014L-35.877,32.6l2.485-3.827A.419.419,0,0,0-33.346,28.76Zm-6.074,2.7,6.337-9.758,2.141,1.464-6.337,9.758ZM-25.735,33.1l-9.139.1,4.744-2.563h4.4Z" fill="#616161"/>
      </g>
      <rect id="Rectangle_529" data-name="Rectangle 529" width="16" height="16" transform="translate(166 550)" fill="none"/>
    </g>
  </g>
</svg>
