<svg width="16" height="16" viewBox="0 0 16 16" fill="none" xmlns="http://www.w3.org/2000/svg">
<g clip-path="url(#clip0_903_347804)">
<path fill-rule="evenodd" clip-rule="evenodd" d="M7.92054 2.68309L4.34766 1.90234C4.3112 1.88411 4.26562 1.875 4.21094 1.875C4.15625 1.875 4.07422 1.89323 3.96484 1.92969L0.410156 3.26953C0.136719 3.36068 0 3.5612 0 3.87109V13.1133C0 13.2773 0.0546875 13.4232 0.164062 13.5508C0.273438 13.6602 0.401042 13.7331 0.546875 13.7695L8.85938 15.875H8.96875C9.15104 15.875 9.30599 15.8112 9.43359 15.6836C9.5612 15.5742 9.625 15.4193 9.625 15.2188V7.55629C9.29884 7.33624 9.00441 7.07275 8.75 6.77412V14.9453L0.875 12.9492V4.5L8.30828 6.15184C8.12797 5.84327 7.9849 5.51027 7.88525 5.15902L1.58594 3.76172L3.99219 2.83203C4.10156 2.79557 4.18359 2.77734 4.23828 2.77734C4.27474 2.77734 4.29297 2.78646 4.29297 2.80469H4.375L7.73654 3.62389C7.76313 3.29874 7.8258 2.9838 7.92054 2.68309ZM12.25 7.28401V4.17188C12.25 4.00781 12.1953 3.87109 12.0859 3.76172C11.9948 3.63411 11.8763 3.55208 11.7305 3.51562L8.90296 2.89776C8.79768 3.20231 8.73559 3.52701 8.72402 3.86453L10.8828 4.39062C11.0286 4.42708 11.1471 4.50911 11.2383 4.63672C11.3294 4.74609 11.375 4.8737 11.375 5.01953V7.22562C11.5877 7.2685 11.8077 7.29101 12.033 7.29101C12.1059 7.29101 12.1783 7.28865 12.25 7.28401ZM12.25 8.28564C12.1781 8.2892 12.1058 8.29101 12.033 8.29101C11.8093 8.29101 11.5895 8.27396 11.375 8.2411V13.9883C11.4297 14.0247 11.4935 14.0521 11.5664 14.0703C11.7122 14.1068 11.8307 14.125 11.9219 14.125C11.9948 14.125 12.0404 14.1159 12.0586 14.0977C12.1133 14.0612 12.1497 14.0156 12.168 13.9609L12.2227 13.7969C12.2409 13.724 12.25 13.651 12.25 13.5781V8.28564ZM9.04941 5.41725C9.19801 5.72518 9.39289 6.0066 9.625 6.25247V6.08594C9.625 5.73958 9.45182 5.52083 9.10547 5.42969L9.04941 5.41725Z" fill="#606060"/>
<path d="M12.033 7.29101C13.8617 7.29101 15.344 5.80862 15.344 3.98001C15.344 2.15139 13.8617 0.669006 12.033 0.669006C10.2044 0.669006 8.72205 2.15139 8.72205 3.98001C8.72205 5.80862 10.2044 7.29101 12.033 7.29101Z" fill="#329626"/>
</g>
<defs>
<clipPath id="clip0_903_347804">
<rect width="16" height="16" fill="white"/>
</clipPath>
</defs>
</svg>
