<svg width="14" height="14" viewBox="0 0 14 14" fill="none" xmlns="http://www.w3.org/2000/svg">
<path fill-rule="evenodd" clip-rule="evenodd" d="M6.76465 12.3926C3.73165 12.3926 1.26465 9.92458 1.26465 6.89258C1.26465 3.86058 3.73165 1.39258 6.76465 1.39258C9.79765 1.39258 12.2646 3.86058 12.2646 6.89258C12.2646 9.92458 9.79765 12.3926 6.76465 12.3926ZM6.76465 0.392578C3.18065 0.392578 0.264648 3.30858 0.264648 6.89258C0.264648 10.4766 3.18065 13.3926 6.76465 13.3926C10.3486 13.3926 13.2646 10.4766 13.2646 6.89258C13.2646 3.30858 10.3486 0.392578 6.76465 0.392578ZM7.26465 10.397V9.39698H6.26465V10.397H7.26465ZM6.12375 3.60548C6.90875 3.25148 7.67375 3.35648 8.30175 3.94048C8.55575 4.17648 8.71875 4.44948 8.78775 4.74248C8.89575 5.19748 8.75175 5.57748 8.66575 5.79648C8.51675 6.17448 8.29575 6.43348 7.90275 6.89348C7.82415 6.98543 7.75743 7.05955 7.69982 7.12354C7.53751 7.30383 7.44745 7.40386 7.36775 7.59648C7.24275 7.90048 7.24375 8.19248 7.26475 8.39448C6.93375 8.39448 6.60275 8.39348 6.27175 8.39248C6.26175 8.25448 6.25875 8.04148 6.30875 7.78948C6.35075 7.58048 6.44475 7.27848 6.96675 6.50348C7.09611 6.3121 7.19793 6.17152 7.27821 6.06065C7.46852 5.79788 7.53791 5.70206 7.56675 5.49248C7.57075 5.46248 7.64975 4.83748 7.29875 4.62348C7.12675 4.51848 6.91375 4.55048 6.81475 4.56648C6.74575 4.57748 6.53875 4.61148 6.35375 4.77748C6.08375 5.01848 6.06575 5.35148 6.06275 5.41948C5.88608 5.41898 5.70916 5.41873 5.53212 5.41848C5.35541 5.41823 5.17858 5.41798 5.00175 5.41748C4.99475 5.24448 4.99975 4.78848 5.29075 4.32648C5.57575 3.87248 5.96775 3.67648 6.12375 3.60548Z" fill="#424242"/>
</svg>
