<svg xmlns="http://www.w3.org/2000/svg" xmlns:xlink="http://www.w3.org/1999/xlink" width="16" height="16" viewBox="0 0 16 16">
  <defs>
    <clipPath id="clip-logout_icon_black">
      <rect width="16" height="16"/>
    </clipPath>
  </defs>
  <g id="logout_icon_black" clip-path="url(#clip-logout_icon_black)">
    <rect width="16" height="16" fill="#fff"/>
    <g id="Group_3892" data-name="Group 3892" transform="translate(-202 -620.467)">
      <path id="Path_1994" data-name="Path 1994" d="M.68,25l2.065,2.1a.5.5,0,1,0,.713-.7L2.229,25.148h8.116v-1H2.134l1.243-1.431a.5.5,0,0,0-.05-.706A.492.492,0,0,0,3,21.888a.5.5,0,0,0-.378.172L.659,24.321A.5.5,0,0,0,.68,25Z" transform="translate(201.464 605)" fill="#c1c1c1"/>
      <rect id="Rectangle_523" data-name="Rectangle 523" width="16" height="16" transform="translate(202 620.467)" fill="none"/>
      <path id="Path_1995" data-name="Path 1995" d="M15.586,22.957a5.946,5.946,0,0,0-5.768-4.494v0a5.959,5.959,0,0,0-5.463,3.606l.97.092a5.042,5.042,0,1,1,.1,4.691H4.4a5.944,5.944,0,0,0,11.182-3.9Z" transform="translate(201.464 605)" fill="#c1c1c1"/>
    </g>
  </g>
</svg>
