<svg xmlns="http://www.w3.org/2000/svg" viewBox="-6 -6 512 512" height="16px" width="16px" fill="#424242">
<path d="M438 426 Q448 435 448 449.5 Q448 462 438 471 Q429 480 416 480 Q403 480 393 471 L276 353 Q231 384 176 384 Q140 384 108 371.5 Q76 357 52 333 Q28 309 14 277 Q0 245 0 208 Q0 172 14 140 Q28 108 52 84 Q76 60 108 46 Q140 32 176 32 Q212 32 244 46 Q276 60 300 84 Q324 108 338 140 Q352 172 352 208 Q352 236 343.5 261 Q335 286 321 308 L438 426 Z M176 352 Q206 352 232 341 Q258 330 277.5 311.5 Q297 291 308.5 265.5 Q320 238 320 208 Q320 178 308.5 152 Q297 126 277.5 107.5 Q258 87 232 76.5 Q206 64 176 64 Q146 64 119.5 76.5 Q93 87 73.5 107.5 Q54 126 43 152 Q32 178 32 208 Q32 238 43 265.5 Q54 291 73.5 311.5 Q93 330 119.5 341 Q146 352 176 352 Z " />
</svg>
